# xmcd
#
# Track frame offsets:
#	150
#	9997
#	22978
#	37668
#	50261
#	61138
#	77339
#	96262
#	110714
#	127608
#	140037
#	152475
#	165840
#	178642
#	191465
#	202712
#	218822
#	234819
#
# Disc length: 3356 seconds
# Revision: 0
# Processed by: cddbd v1.5.2PL0 Copyright (c) Steve Scherf et al.
# Submitted via: dBpowerAMP V12.0
#
DISCID=c70d1a12
DTITLE=Anne Murray - Greatest Hits
DYEAR=1900
DGENRE=
TTITLE0=Snowbird
TTITLE1=Danny's Song
TTITLE2=Shadows In The Moonlight
TTITLE3=I Just Fall In Love Again
TTITLE4=Daydream Believer
TTITLE5=You Needed Me
TTITLE6=Now And Forever
TTITLE7=Could I Have This Dance
TTITLE8=Broken Hearted Me
TTITLE9=Blessed Are The Believers
TTITLE10=A Love Song
TTITLE11=You Won't See Me
TTITLE12=Tennessee Waltz
TTITLE13=Just Another Woman In Love
TTITLE14=Baby
TTITLE15=Do You Think Of Me
TTITLE16=Time Don't Run Out On Me
TTITLE17=Nobody Loves Me Like You Do
EXTD=
EXTT0=
EXTT1=
EXTT2=
EXTT3=
EXTT4=
EXTT5=
EXTT6=
EXTT7=
EXTT8=
EXTT9=
EXTT10=
EXTT11=
EXTT12=
EXTT13=
EXTT14=
EXTT15=
EXTT16=
EXTT17=
PLAYORDER=
